<svg width="53" height="53" viewBox="0 0 53 53" fill="none" xmlns="http://www.w3.org/2000/svg">
<g clip-path="url(#clip0)">
<path d="M26.3618 53C40.9974 53 52.8618 41.1355 52.8618 26.5C52.8618 11.8645 40.9974 0 26.3618 0C11.7263 0 -0.138184 11.8645 -0.138184 26.5C-0.138184 41.1355 11.7263 53 26.3618 53Z" fill="#2DB9C8"/>
<g opacity="0.2">
<path opacity="0.2" d="M23.1875 19.0469V11.5938H12.4219C11.0497 11.5938 9.9375 12.7059 9.9375 14.0781V42.2344C9.9375 43.6066 11.0497 44.7188 12.4219 44.7188H30.6406C32.0128 44.7188 33.125 43.6066 33.125 42.2344V21.5312H25.6719C24.2997 21.5312 23.1875 20.4191 23.1875 19.0469Z" fill="#2DB9C8"/>
</g>
<path d="M30.6406 9.9375H23.1875H12.4219C11.0497 9.9375 9.9375 11.0497 9.9375 12.4219V33.125V40.5781C9.9375 41.9503 11.0497 43.0625 12.4219 43.0625H19.875H30.6406C32.0128 43.0625 33.125 41.9503 33.125 40.5781V19.875V12.4219C33.125 11.0497 32.0128 9.9375 30.6406 9.9375Z" fill="#E0E0D1"/>
<g opacity="0.2">
<path opacity="0.2" d="M21.5312 15.7344H13.25V17.3906H21.5312V15.7344Z" fill="#2DB9C8"/>
</g>
<g opacity="0.2">
<path opacity="0.2" d="M29.8125 28.9844H13.25V30.6406H29.8125V28.9844Z" fill="#2DB9C8"/>
</g>
<g opacity="0.2">
<path opacity="0.2" d="M29.8125 24.8438H13.25V26.5H29.8125V24.8438Z" fill="#2DB9C8"/>
</g>
<g opacity="0.2">
<path opacity="0.2" d="M29.8125 20.7031H13.25V22.3594H29.8125V20.7031Z" fill="#2DB9C8"/>
</g>
<g opacity="0.2">
<path opacity="0.2" d="M29.8125 33.125H13.25V34.7812H29.8125V33.125Z" fill="#2DB9C8"/>
</g>
<g opacity="0.2">
<path opacity="0.2" d="M29.8125 37.2656H13.25V38.9219H29.8125V37.2656Z" fill="#2DB9C8"/>
</g>
<g opacity="0.2">
<path opacity="0.2" d="M45.6472 18.1062L39.7915 12.2505C38.821 11.2799 37.2484 11.2799 36.2778 12.2505L33.3496 15.1788L32.7641 15.7642L19.2971 29.232L17.7353 37.0396L16.9543 40.9434L20.8581 40.1625L28.6657 38.6006L42.1335 25.1328L42.719 24.5473L45.6472 21.6191C46.6178 20.6493 46.6178 19.0767 45.6472 18.1062Z" fill="#231F20"/>
</g>
<path d="M42.1342 23.5477C41.1636 24.5183 39.591 24.5183 38.6205 23.5477L32.7648 17.692C31.7942 16.7215 31.7942 15.1489 32.7648 14.1783L36.2785 10.6646C37.2491 9.694 38.8217 9.694 39.7923 10.6646L45.6479 16.5202C46.6185 17.4908 46.6185 19.0634 45.6479 20.034L42.1342 23.5477Z" fill="#C75C5C"/>
<path d="M33.3502 13.5934L19.2966 27.647L21.6389 29.9892L35.6925 15.9356L33.3502 13.5934Z" fill="#E0995E"/>
<path d="M35.6923 15.9349L20.4675 31.1597L25.1521 35.8442L40.3768 20.6195L35.6923 15.9349Z" fill="#F5CF87"/>
<path d="M40.3766 20.6201L26.323 34.6737L28.6653 37.016L42.7189 22.9624L40.3766 20.6201Z" fill="#E0995E"/>
<path d="M16.9543 39.3584L20.8581 38.5774L17.7353 35.4546L16.9543 39.3584Z" fill="#4F5D73"/>
<path d="M19.2972 27.647L17.7354 35.4545L20.8582 38.5774L28.6658 37.0156L27.4948 35.8446V33.5026H22.8101V28.8179H20.4682L19.2972 27.647Z" fill="white"/>
</g>
<defs>
<clipPath id="clip0">
<rect width="53" height="53" fill="white"/>
</clipPath>
</defs>
</svg>
