<svg width="323" height="90" viewBox="0 0 323 90" fill="none" xmlns="http://www.w3.org/2000/svg">
<g filter="url(#filter0_d)">
<rect x="4" y="9.09094" width="72.7273" height="72.7273" rx="6" fill="#2DB9C8"/>
</g>
<path d="M39.9092 72.9668C54.7723 72.9668 66.8213 60.5086 66.8213 45.1406C66.8213 29.7727 54.7723 17.3145 39.9092 17.3145C25.046 17.3145 12.9971 29.7727 12.9971 45.1406C12.9971 60.5086 25.046 72.9668 39.9092 72.9668Z" fill="#FFB713"/>
<path d="M39.9971 68.168C32.1396 68.168 25.7588 62.2266 25.7588 54.8965C25.7588 54.4746 26.1104 54.123 26.5146 54.123C26.6201 54.123 26.708 54.1406 26.8135 54.1758C30.6982 55.7754 35.251 56.6191 39.9971 56.6191C44.7432 56.6191 49.2959 55.7754 53.1807 54.1758C53.2686 54.1406 53.374 54.123 53.4795 54.123C53.9014 54.123 54.2354 54.457 54.2354 54.8789C54.2354 62.209 47.8545 68.168 39.9971 68.168Z" fill="url(#paint0_radial)"/>
<path d="M39.9971 56.4609C35.1104 56.4609 30.5928 55.5644 26.8838 54.0351C26.2686 53.789 25.583 54.2285 25.583 54.8964V54.914C25.583 62.332 32.0342 68.3613 39.9971 68.3613C47.96 68.3613 54.4111 62.3496 54.4111 54.914V54.8964C54.4111 54.2285 53.7256 53.789 53.1104 54.0351C49.4014 55.5644 44.8838 56.4609 39.9971 56.4609Z" fill="url(#paint1_radial)"/>
<path d="M39.997 60.8554C44.1982 60.8554 48.2763 60.205 51.8798 58.957C52.4423 58.7636 52.8642 58.3066 53.0048 57.7441C53.1806 57.0586 53.3036 56.3379 53.3388 55.6171C53.3564 55.3711 53.0927 55.1777 52.8642 55.2656C49.0321 56.7421 44.6024 57.5156 39.997 57.5156C35.3915 57.5156 30.9618 56.7421 27.1298 55.2656C26.8837 55.1777 26.6376 55.3711 26.6552 55.6171C26.7079 56.3379 26.8134 57.0586 26.9892 57.7441C27.1298 58.3066 27.5692 58.7812 28.1142 58.957C31.7177 60.205 35.7782 60.8554 39.997 60.8554Z" fill="#E6E7E8"/>
<circle cx="69.9092" cy="15" r="15" fill="white"/>
<path d="M72.2792 12.082C72.0152 10.75 71.1932 10.084 69.8132 10.084C68.7452 10.084 67.9472 10.498 67.4192 11.326C66.8912 12.142 66.6332 13.492 66.6452 15.376C66.9212 14.752 67.3772 14.266 68.0132 13.918C68.6612 13.558 69.3812 13.378 70.1732 13.378C71.4092 13.378 72.3932 13.762 73.1252 14.53C73.8692 15.298 74.2412 16.36 74.2412 17.716C74.2412 18.532 74.0792 19.264 73.7552 19.912C73.4432 20.56 72.9632 21.076 72.3152 21.46C71.6792 21.844 70.9052 22.036 69.9932 22.036C68.7572 22.036 67.7912 21.76 67.0952 21.208C66.3992 20.656 65.9132 19.894 65.6372 18.922C65.3612 17.95 65.2232 16.75 65.2232 15.322C65.2232 10.918 66.7592 8.716 69.8312 8.716C71.0072 8.716 71.9312 9.034 72.6032 9.67C73.2752 10.306 73.6712 11.11 73.7912 12.082H72.2792ZM69.8312 14.764C69.3152 14.764 68.8292 14.872 68.3732 15.088C67.9172 15.292 67.5452 15.61 67.2572 16.042C66.9812 16.462 66.8432 16.978 66.8432 17.59C66.8432 18.502 67.1072 19.246 67.6352 19.822C68.1632 20.386 68.9192 20.668 69.9032 20.668C70.7432 20.668 71.4092 20.41 71.9012 19.894C72.4052 19.366 72.6572 18.658 72.6572 17.77C72.6572 16.834 72.4172 16.102 71.9372 15.574C71.4572 15.034 70.7552 14.764 69.8312 14.764Z" fill="#235173"/>
<g filter="url(#filter1_d)">
<path d="M119 14.9899C119 11.6762 121.686 8.98987 125 8.98987H185.653C188.967 8.98987 191.653 11.6762 191.653 14.9899V74.9091C191.653 78.2228 188.967 80.9091 185.653 80.9091H125C121.686 80.9091 119 78.2228 119 74.9091V14.9899Z" fill="#2DB9C8" fill-opacity="0.5"/>
</g>
<path d="M155.326 72.1387C170.024 72.1387 181.94 59.8189 181.94 44.6217C181.94 29.4245 170.024 17.1047 155.326 17.1047C140.628 17.1047 128.713 29.4245 128.713 44.6217C128.713 59.8189 140.628 72.1387 155.326 72.1387Z" fill="#FFB713"/>
<circle cx="186.826" cy="16" r="15" fill="white"/>
<path d="M181.906 13.262C181.99 12.158 182.416 11.294 183.184 10.67C183.952 10.046 184.948 9.734 186.172 9.734C186.988 9.734 187.69 9.884 188.278 10.184C188.878 10.472 189.328 10.868 189.628 11.372C189.94 11.876 190.096 12.446 190.096 13.082C190.096 13.826 189.88 14.468 189.448 15.008C189.028 15.548 188.476 15.896 187.792 16.052V16.142C188.572 16.334 189.19 16.712 189.646 17.276C190.102 17.84 190.33 18.578 190.33 19.49C190.33 20.174 190.174 20.792 189.862 21.344C189.55 21.884 189.082 22.31 188.458 22.622C187.834 22.934 187.084 23.09 186.208 23.09C184.936 23.09 183.892 22.76 183.076 22.1C182.26 21.428 181.804 20.48 181.708 19.256H183.292C183.376 19.976 183.67 20.564 184.174 21.02C184.678 21.476 185.35 21.704 186.19 21.704C187.03 21.704 187.666 21.488 188.098 21.056C188.542 20.612 188.764 20.042 188.764 19.346C188.764 18.446 188.464 17.798 187.864 17.402C187.264 17.006 186.358 16.808 185.146 16.808H184.732V15.44H185.164C186.268 15.428 187.102 15.248 187.666 14.9C188.23 14.54 188.512 13.988 188.512 13.244C188.512 12.608 188.302 12.098 187.882 11.714C187.474 11.33 186.886 11.138 186.118 11.138C185.374 11.138 184.774 11.33 184.318 11.714C183.862 12.098 183.592 12.614 183.508 13.262H181.906Z" fill="#235173"/>
<g filter="url(#filter2_d)">
<path d="M236 15C236 11.6863 238.686 9 242 9H302.653C305.967 9 308.653 11.6863 308.653 15V74.9192C308.653 78.2329 305.967 80.9192 302.653 80.9192H242C238.686 80.9192 236 78.2329 236 74.9192V15Z" fill="#2DB9C8" fill-opacity="0.25"/>
</g>
<path d="M274.148 72.8541C289.807 72.8541 302.502 59.7282 302.502 43.5366C302.502 27.3451 289.807 14.2192 274.148 14.2192C258.488 14.2192 245.793 27.3451 245.793 43.5366C245.793 59.7282 258.488 72.8541 274.148 72.8541Z" fill="#FFB713"/>
<path d="M285.019 65.0015C285.112 65.1682 284.889 65.3534 284.741 65.2237C283.223 64.0755 281.648 63.2421 279.981 62.6679C278.111 62.0197 276.166 61.7049 274.222 61.7049C272.277 61.7049 270.332 62.0197 268.462 62.6679C266.795 63.2421 265.221 64.0755 263.702 65.2237C263.554 65.3348 263.332 65.1682 263.424 65.0015C263.813 64.2421 264.332 63.5384 264.925 62.9087C265.702 62.0938 266.61 61.39 267.61 60.8159C269.592 59.6862 271.925 59.1121 274.222 59.1121C276.518 59.1121 278.833 59.6862 280.833 60.8159C281.833 61.39 282.741 62.0753 283.519 62.9087C284.111 63.5569 284.63 64.2421 285.019 65.0015Z" fill="url(#paint2_radial)"/>
<circle cx="308" cy="15" r="15" fill="white"/>
<path d="M305.684 10.48V8.986H309.068V22H307.412V10.48H305.684Z" fill="#235173"/>
<rect x="144" y="58" width="21" height="2" rx="1" fill="#7E3411"/>
<ellipse cx="31.5" cy="32.5" rx="1.5" ry="2.5" fill="#7E3411"/>
<ellipse cx="49.5" cy="32.5" rx="1.5" ry="2.5" fill="#7E3411"/>
<ellipse cx="145.5" cy="33.5" rx="1.5" ry="2.5" fill="#7E3411"/>
<ellipse cx="264.5" cy="33.5" rx="1.5" ry="2.5" fill="#7E3411"/>
<ellipse cx="165.5" cy="33.5" rx="1.5" ry="2.5" fill="#7E3411"/>
<ellipse cx="284.5" cy="33.5" rx="1.5" ry="2.5" fill="#7E3411"/>
<defs>
<filter id="filter0_d" x="0" y="9.09094" width="80.7273" height="80.7273" filterUnits="userSpaceOnUse" color-interpolation-filters="sRGB">
<feFlood flood-opacity="0" result="BackgroundImageFix"/>
<feColorMatrix in="SourceAlpha" type="matrix" values="0 0 0 0 0 0 0 0 0 0 0 0 0 0 0 0 0 0 127 0"/>
<feOffset dy="4"/>
<feGaussianBlur stdDeviation="2"/>
<feColorMatrix type="matrix" values="0 0 0 0 0 0 0 0 0 0 0 0 0 0 0 0 0 0 0.25 0"/>
<feBlend mode="normal" in2="BackgroundImageFix" result="effect1_dropShadow"/>
<feBlend mode="normal" in="SourceGraphic" in2="effect1_dropShadow" result="shape"/>
</filter>
<filter id="filter1_d" x="115" y="8.98987" width="80.6531" height="79.9192" filterUnits="userSpaceOnUse" color-interpolation-filters="sRGB">
<feFlood flood-opacity="0" result="BackgroundImageFix"/>
<feColorMatrix in="SourceAlpha" type="matrix" values="0 0 0 0 0 0 0 0 0 0 0 0 0 0 0 0 0 0 127 0"/>
<feOffset dy="4"/>
<feGaussianBlur stdDeviation="2"/>
<feColorMatrix type="matrix" values="0 0 0 0 0 0 0 0 0 0 0 0 0 0 0 0 0 0 0.25 0"/>
<feBlend mode="normal" in2="BackgroundImageFix" result="effect1_dropShadow"/>
<feBlend mode="normal" in="SourceGraphic" in2="effect1_dropShadow" result="shape"/>
</filter>
<filter id="filter2_d" x="232" y="9" width="80.6531" height="79.9192" filterUnits="userSpaceOnUse" color-interpolation-filters="sRGB">
<feFlood flood-opacity="0" result="BackgroundImageFix"/>
<feColorMatrix in="SourceAlpha" type="matrix" values="0 0 0 0 0 0 0 0 0 0 0 0 0 0 0 0 0 0 127 0"/>
<feOffset dy="4"/>
<feGaussianBlur stdDeviation="2"/>
<feColorMatrix type="matrix" values="0 0 0 0 0 0 0 0 0 0 0 0 0 0 0 0 0 0 0.25 0"/>
<feBlend mode="normal" in2="BackgroundImageFix" result="effect1_dropShadow"/>
<feBlend mode="normal" in="SourceGraphic" in2="effect1_dropShadow" result="shape"/>
</filter>
<radialGradient id="paint0_radial" cx="0" cy="0" r="1" gradientUnits="userSpaceOnUse" gradientTransform="translate(39.9971 61.1448) scale(11.228)">
<stop stop-color="#7E3411"/>
<stop offset="1" stop-color="#7E3411"/>
</radialGradient>
<radialGradient id="paint1_radial" cx="0" cy="0" r="1" gradientUnits="userSpaceOnUse" gradientTransform="translate(39.9971 61.1448) scale(11.3945)">
<stop stop-color="#7E3411"/>
<stop offset="1" stop-color="#7E3411"/>
</radialGradient>
<radialGradient id="paint2_radial" cx="0" cy="0" r="1" gradientUnits="userSpaceOnUse" gradientTransform="translate(274.239 62.5605) rotate(180) scale(8.66608 5.56622)">
<stop stop-color="#7E3411"/>
<stop offset="1" stop-color="#7E3411"/>
</radialGradient>
</defs>
</svg>
