<svg width="305" height="97" viewBox="0 0 305 97" fill="none" xmlns="http://www.w3.org/2000/svg">
<g clip-path="url(#clip0)">
<path d="M118.174 21.9899C118.174 18.6762 120.86 15.9899 124.174 15.9899H184.827C188.14 15.9899 190.827 18.6762 190.827 21.9899V81.9091C190.827 85.2228 188.14 87.9091 184.827 87.9091H124.174C120.86 87.9091 118.174 85.2228 118.174 81.9091V21.9899Z" fill="#2DB9C8" fill-opacity="0.5"/>
<path d="M154.5 79.1386C169.198 79.1386 181.113 66.8188 181.113 51.6216C181.113 36.4244 169.198 24.1046 154.5 24.1046C139.802 24.1046 127.887 36.4244 127.887 51.6216C127.887 66.8188 139.802 79.1386 154.5 79.1386Z" fill="#FFB713"/>
<path d="M180.227 43.6256C178.593 38.0283 175.203 33.0047 170.666 29.4586C165.973 25.7908 160.393 23.8613 154.5 23.8613C148.607 23.8613 143.027 25.7908 138.334 29.4586C133.797 33.0047 130.407 38.0283 128.773 43.6256C128.721 43.7994 128.843 43.9559 129.017 43.9559H179.983C180.157 43.9559 180.279 43.782 180.227 43.6256Z" fill="#E6E7E8"/>
<circle cx="187.5" cy="17.5" r="16.5" fill="white"/>
<path d="M183.08 14.262C183.164 13.158 183.59 12.294 184.358 11.67C185.126 11.046 186.122 10.734 187.346 10.734C188.162 10.734 188.864 10.884 189.452 11.184C190.052 11.472 190.502 11.868 190.802 12.372C191.114 12.876 191.27 13.446 191.27 14.082C191.27 14.826 191.054 15.468 190.622 16.008C190.202 16.548 189.65 16.896 188.966 17.052V17.142C189.746 17.334 190.364 17.712 190.82 18.276C191.276 18.84 191.504 19.578 191.504 20.49C191.504 21.174 191.348 21.792 191.036 22.344C190.724 22.884 190.256 23.31 189.632 23.622C189.008 23.934 188.258 24.09 187.382 24.09C186.11 24.09 185.066 23.76 184.25 23.1C183.434 22.428 182.978 21.48 182.882 20.256H184.466C184.55 20.976 184.844 21.564 185.348 22.02C185.852 22.476 186.524 22.704 187.364 22.704C188.204 22.704 188.84 22.488 189.272 22.056C189.716 21.612 189.938 21.042 189.938 20.346C189.938 19.446 189.638 18.798 189.038 18.402C188.438 18.006 187.532 17.808 186.32 17.808H185.906V16.44H186.338C187.442 16.428 188.276 16.248 188.84 15.9C189.404 15.54 189.686 14.988 189.686 14.244C189.686 13.608 189.476 13.098 189.056 12.714C188.648 12.33 188.06 12.138 187.292 12.138C186.548 12.138 185.948 12.33 185.492 12.714C185.036 13.098 184.766 13.614 184.682 14.262H183.08Z" fill="#235173"/>
</g>
<path d="M219 23C219 19.6863 221.686 17 225 17H285.653C288.967 17 291.653 19.6863 291.653 23V82.9192C291.653 86.2329 288.967 88.9192 285.653 88.9192H225C221.686 88.9192 219 86.2329 219 82.9192V23Z" fill="#2DB9C8" fill-opacity="0.25"/>
<g clip-path="url(#clip1)" filter="url(#filter0_d)">
<rect x="9.09082" y="16.0909" width="72.7273" height="72.7273" rx="6" fill="#2DB9C8"/>
<path d="M45 79.9668C59.8631 79.9668 71.9121 67.5086 71.9121 52.1406C71.9121 36.7727 59.8631 24.3145 45 24.3145C30.1369 24.3145 18.0879 36.7727 18.0879 52.1406C18.0879 67.5086 30.1369 79.9668 45 79.9668Z" fill="#FFB713"/>
<path d="M45.0879 75.168C37.2305 75.168 30.8496 69.2266 30.8496 61.8965C30.8496 61.4746 31.2012 61.123 31.6055 61.123C31.7109 61.123 31.7988 61.1406 31.9043 61.1758C35.7891 62.7754 40.3418 63.6191 45.0879 63.6191C49.834 63.6191 54.3867 62.7754 58.2715 61.1758C58.3594 61.1406 58.4648 61.123 58.5703 61.123C58.9922 61.123 59.3262 61.457 59.3262 61.8789C59.3262 69.209 52.9453 75.168 45.0879 75.168Z" fill="url(#paint0_radial)"/>
<path d="M45.0879 63.4609C40.2012 63.4609 35.6836 62.5644 31.9746 61.0351C31.3594 60.789 30.6738 61.2285 30.6738 61.8964V61.914C30.6738 69.332 37.125 75.3613 45.0879 75.3613C53.0508 75.3613 59.502 69.3496 59.502 61.914V61.8964C59.502 61.2285 58.8164 60.789 58.2012 61.0351C54.4922 62.5644 49.9746 63.4609 45.0879 63.4609Z" fill="url(#paint1_radial)"/>
<path d="M45.0878 67.8554C49.289 67.8554 53.3671 67.205 56.9706 65.957C57.5331 65.7636 57.955 65.3066 58.0956 64.7441C58.2714 64.0586 58.3944 63.3379 58.4296 62.6171C58.4472 62.3711 58.1835 62.1777 57.955 62.2656C54.123 63.7421 49.6933 64.5156 45.0878 64.5156C40.4823 64.5156 36.0526 63.7421 32.2206 62.2656C31.9745 62.1777 31.7284 62.3711 31.746 62.6171C31.7987 63.3379 31.9042 64.0586 32.08 64.7441C32.2206 65.3066 32.6601 65.7812 33.205 65.957C36.8085 67.205 40.8691 67.8554 45.0878 67.8554Z" fill="#E6E7E8"/>
<path d="M71.0157 44.0371C69.3634 38.377 65.9357 33.2969 61.3478 29.7109C56.6017 26.002 50.9591 24.0508 45.0001 24.0508C39.0411 24.0508 33.3985 26.002 28.6525 29.7109C24.0646 33.2969 20.6368 38.377 18.9845 44.0371C18.9318 44.2129 19.0548 44.3711 19.2306 44.3711H70.7696C70.9454 44.3711 71.0685 44.1953 71.0157 44.0371Z" fill="#E6E7E8"/>
<circle cx="74.5" cy="17.5" r="16.5" fill="white"/>
<path d="M77.37 14.082C77.106 12.75 76.284 12.084 74.904 12.084C73.836 12.084 73.038 12.498 72.51 13.326C71.982 14.142 71.724 15.492 71.736 17.376C72.012 16.752 72.468 16.266 73.104 15.918C73.752 15.558 74.472 15.378 75.264 15.378C76.5 15.378 77.484 15.762 78.216 16.53C78.96 17.298 79.332 18.36 79.332 19.716C79.332 20.532 79.17 21.264 78.846 21.912C78.534 22.56 78.054 23.076 77.406 23.46C76.77 23.844 75.996 24.036 75.084 24.036C73.848 24.036 72.882 23.76 72.186 23.208C71.49 22.656 71.004 21.894 70.728 20.922C70.452 19.95 70.314 18.75 70.314 17.322C70.314 12.918 71.85 10.716 74.922 10.716C76.098 10.716 77.022 11.034 77.694 11.67C78.366 12.306 78.762 13.11 78.882 14.082H77.37ZM74.922 16.764C74.406 16.764 73.92 16.872 73.464 17.088C73.008 17.292 72.636 17.61 72.348 18.042C72.072 18.462 71.934 18.978 71.934 19.59C71.934 20.502 72.198 21.246 72.726 21.822C73.254 22.386 74.01 22.668 74.994 22.668C75.834 22.668 76.5 22.41 76.992 21.894C77.496 21.366 77.748 20.658 77.748 19.77C77.748 18.834 77.508 18.102 77.028 17.574C76.548 17.034 75.846 16.764 74.922 16.764Z" fill="#235173"/>
</g>
<path d="M257.148 80.8541C272.807 80.8541 285.502 67.7282 285.502 51.5366C285.502 35.3451 272.807 22.2192 257.148 22.2192C241.488 22.2192 228.793 35.3451 228.793 51.5366C228.793 67.7282 241.488 80.8541 257.148 80.8541Z" fill="#FFB713"/>
<path d="M268.019 73.0015C268.112 73.1682 267.889 73.3534 267.741 73.2237C266.223 72.0755 264.648 71.2421 262.981 70.6679C261.111 70.0197 259.166 69.7049 257.222 69.7049C255.277 69.7049 253.332 70.0197 251.462 70.6679C249.795 71.2421 248.221 72.0755 246.702 73.2237C246.554 73.3348 246.332 73.1682 246.424 73.0015C246.813 72.2421 247.332 71.5384 247.925 70.9087C248.702 70.0938 249.61 69.39 250.61 68.8159C252.592 67.6862 254.925 67.1121 257.222 67.1121C259.518 67.1121 261.833 67.6862 263.833 68.8159C264.833 69.39 265.741 70.0753 266.519 70.9087C267.111 71.5569 267.63 72.2421 268.019 73.0015Z" fill="url(#paint2_radial)"/>
<path d="M284.557 42.9988C282.817 37.0353 279.205 31.683 274.371 27.9049C269.371 23.9971 263.426 21.9414 257.148 21.9414C250.869 21.9414 244.924 23.9971 239.924 27.9049C235.09 31.683 231.479 37.0353 229.738 42.9988C229.682 43.184 229.812 43.3507 229.997 43.3507H284.298C284.483 43.3507 284.613 43.1655 284.557 42.9988Z" fill="#E6E7E8"/>
<circle cx="288.5" cy="16.5" r="16.5" fill="white"/>
<path d="M283.684 11.48V9.986H287.068V23H285.412V11.48H283.684Z" fill="#235173"/>
<defs>
<filter id="filter0_d" x="-4" y="7" width="98" height="98" filterUnits="userSpaceOnUse" color-interpolation-filters="sRGB">
<feFlood flood-opacity="0" result="BackgroundImageFix"/>
<feColorMatrix in="SourceAlpha" type="matrix" values="0 0 0 0 0 0 0 0 0 0 0 0 0 0 0 0 0 0 127 0"/>
<feOffset dy="4"/>
<feGaussianBlur stdDeviation="2"/>
<feColorMatrix type="matrix" values="0 0 0 0 0 0 0 0 0 0 0 0 0 0 0 0 0 0 0.25 0"/>
<feBlend mode="normal" in2="BackgroundImageFix" result="effect1_dropShadow"/>
<feBlend mode="normal" in="SourceGraphic" in2="effect1_dropShadow" result="shape"/>
</filter>
<radialGradient id="paint0_radial" cx="0" cy="0" r="1" gradientUnits="userSpaceOnUse" gradientTransform="translate(45.0879 68.1448) scale(11.228)">
<stop stop-color="#7E3411"/>
<stop offset="1" stop-color="#7E3411"/>
</radialGradient>
<radialGradient id="paint1_radial" cx="0" cy="0" r="1" gradientUnits="userSpaceOnUse" gradientTransform="translate(45.0879 68.1448) scale(11.3945)">
<stop stop-color="#7E3411"/>
<stop offset="1" stop-color="#7E3411"/>
</radialGradient>
<radialGradient id="paint2_radial" cx="0" cy="0" r="1" gradientUnits="userSpaceOnUse" gradientTransform="translate(257.239 70.5605) rotate(180) scale(8.66608 5.56622)">
<stop stop-color="#7E3411"/>
<stop offset="1" stop-color="#7E3411"/>
</radialGradient>
<clipPath id="clip0">
<rect width="89" height="89" fill="white" transform="translate(110 7)"/>
</clipPath>
<clipPath id="clip1">
<rect width="90" height="90" fill="white" transform="translate(0 7)"/>
</clipPath>
</defs>
</svg>
